<?xml version="1.0" encoding="UTF-8"?>
<svg id="_レイヤー_1" data-name="レイヤー 1" xmlns="http://www.w3.org/2000/svg" viewBox="0 0 605.15 1140.3">
  <path d="M500.02,689.2c-29.5-24.9-78.03-56.91-110.89-77.13-61.16-37.64-198.04-85.05-233.09-146.68-1.61-2.84-4.12-7.27-4.12-7.27,0,0,12.38-66.91,146.63-156.88,65.28-43.75,129.02-89.64,213.54-121.73C497.28,118.75,480.24,58.88,460.97,0,384.33,23.73,10.41,215.8,110.31,450.85c62.8,147.77,317.81,162.4,386.97,330.26,30.24,73.39,37.35,170.5-12.56,235.17-60.56,78.48-179.14,102.06-282.02,78.86-36.01-8.12-71.45-37.16-67.43-81.22,12.36-135.42,173.56-194.25,247.84-209.95-113.48-72.48-309.76-57.04-367.51,76.97-28.41,65.93-18.09,137.86,31.55,182.02,84.99,75.62,211.24,86.93,309.7,71.22,83.72-13.36,167.22-64.73,205.5-121.16,79.04-116.53,43-234.88-62.34-323.81Z"/>
  <path d="M329.26,554.82c13.91,6.74,27.41,13.28,39.86,19.65l7.55,3.54c40.69-56.78,117.36-87.68,189.18-94.57-6.02-53.72-13.78-106.91-23.23-159.52-46.67,12.78-99.1,40.13-137.53,65.66-80.83,53.7-123.15,125.47-130.23,138.17,18.24,9.54,36.96,18.61,54.41,27.07Z"/>
</svg>